# xmcd CD database file
# Copyright (C) 1993-1998 Ti Kan
#
# Track frame offsets:
# 150
# 19932
# 41375
# 49757
# 72350
# 86290
# 102805
# 110595
# 127150
# 142185
# 167172
# 183590
#
# Disc length: 2653 seconds
#
# Revision: 1
# Processed by: cddbd v1.4b41PL1 Copyright (c) Steve Scherf et al.
# Submitted via: MediaSauce 1.5 http://www.flatcracker.com
#
DISCID=a90a5b0c
DTITLE=Greg Douglass - "Maelstrom"
DYEAR=1900
DGENRE=
TTITLE0=Police dog blues (Blind Blake, arr. Greg Douglass)
TTITLE1=Maelstrom (Greg Douglass)
TTITLE2=Breather (Greg Douglass)
TTITLE3=Drugs and Alcohol (Nick Gravenites)
TTITLE4=Bad talkin' blues man (Nick Gravenites)
TTITLE5=The Irish tune (Greg Douglass)
TTITLE6=Recovery rag  (Greg Douglass)
TTITLE7=Parchman farm (Mose Allison)
TTITLE8=Wailing wall (Greg Douglass)
TTITLE9=Poor boy (Trad. arr. Greg Douglass)
TTITLE10=Can't be satisfied (McKinley Morganfield)
TTITLE11=Shelly's song (Greg Douglass)
EXTD=
EXTT0=
EXTT1=
EXTT2=
EXTT3=
EXTT4=
EXTT5=
EXTT6=
EXTT7=
EXTT8=
EXTT9=
EXTT10=
EXTT11=
PLAYORDER=
